<svg width="23" height="23" viewBox="0 0 23 23" fill="none" xmlns="http://www.w3.org/2000/svg">
<path d="M18.7166 6.14247C18.9935 6.4043 19.1552 6.76541 19.166 7.14639C19.1767 7.52738 19.0358 7.89705 18.7741 8.17413L10.6282 16.7991C10.4962 16.9387 10.3376 17.0503 10.1617 17.1275C9.98576 17.2047 9.79617 17.2459 9.60409 17.2485C9.41202 17.2512 9.22136 17.2154 9.04337 17.1431C8.86538 17.0709 8.70368 16.9637 8.56782 16.8279L4.25532 12.5154C4.0014 12.2429 3.86316 11.8825 3.86973 11.51C3.8763 11.1376 4.02717 10.7823 4.29054 10.5189C4.55392 10.2556 4.90924 10.1047 5.28165 10.0981C5.65406 10.0916 6.01448 10.2298 6.28698 10.4837L9.5549 13.7497L16.6849 6.19997C16.9467 5.923 17.3078 5.76136 17.6888 5.75058C18.0698 5.73979 18.4395 5.88075 18.7166 6.14247Z" fill="#003C96"/>
</svg>