<svg width="24" height="24" viewBox="0 0 24 24" fill="none" xmlns="http://www.w3.org/2000/svg">
<path d="M19.5297 6.40953C19.8187 6.68275 19.9874 7.05956 19.9986 7.45711C20.0099 7.85466 19.8628 8.2404 19.5897 8.52953L11.0897 17.5295C10.9519 17.6751 10.7864 17.7916 10.6028 17.8722C10.4193 17.9527 10.2215 17.9957 10.021 17.9985C9.8206 18.0013 9.62165 17.9639 9.43592 17.8885C9.2502 17.8131 9.08146 17.7012 8.93969 17.5595L4.43969 13.0595C4.17473 12.7752 4.03049 12.3991 4.03734 12.0105C4.0442 11.6219 4.20162 11.2511 4.47645 10.9763C4.75128 10.7015 5.12205 10.544 5.51065 10.5372C5.89925 10.5303 6.27534 10.6746 6.55969 10.9395L9.96969 14.3475L17.4097 6.46953C17.6829 6.18052 18.0597 6.01185 18.4573 6.0006C18.8548 5.98935 19.2406 6.13644 19.5297 6.40953Z" fill="black"/>
</svg>
