<svg width="40" height="40" viewBox="0 0 40 40" fill="none" xmlns="http://www.w3.org/2000/svg">
<rect width="40" height="40" rx="8" fill="#001E64"/>
<path d="M11 22L11.5 22.07L16.07 17.5C15.9783 17.1642 15.9782 16.81 16.0696 16.4741C16.1611 16.1382 16.3407 15.833 16.59 15.59C17.37 14.8 18.63 14.8 19.41 15.59C19.94 16.11 20.11 16.85 19.93 17.5L22.5 20.07L23 20C23.18 20 23.35 20 23.5 20.07L27.07 16.5C27 16.35 27 16.18 27 16C27 15.4696 27.2107 14.9609 27.5858 14.5858C27.9609 14.2107 28.4696 14 29 14C29.5304 14 30.0391 14.2107 30.4142 14.5858C30.7893 14.9609 31 15.4696 31 16C31 16.5304 30.7893 17.0391 30.4142 17.4142C30.0391 17.7893 29.5304 18 29 18C28.82 18 28.65 18 28.5 17.93L24.93 21.5C25 21.65 25 21.82 25 22C25 22.5304 24.7893 23.0391 24.4142 23.4142C24.0391 23.7893 23.5304 24 23 24C22.4696 24 21.9609 23.7893 21.5858 23.4142C21.2107 23.0391 21 22.5304 21 22L21.07 21.5L18.5 18.93C18.18 19 17.82 19 17.5 18.93L12.93 23.5L13 24C13 24.5304 12.7893 25.0391 12.4142 25.4142C12.0391 25.7893 11.5304 26 11 26C10.4696 26 9.96086 25.7893 9.58579 25.4142C9.21071 25.0391 9 24.5304 9 24C9 23.4696 9.21071 22.9609 9.58579 22.5858C9.96086 22.2107 10.4696 22 11 22Z" fill="white"/>
</svg>
