<svg width="50" height="50" viewBox="0 0 50 50" fill="none" xmlns="http://www.w3.org/2000/svg">
<rect width="50" height="50" rx="8" fill="#F0F0F0"/>
<path d="M31 20.4167C31 19.0041 30.5422 17.6311 29.6977 16.5104C28.8532 15.3898 27.6691 14.5842 26.3292 14.2186C24.9892 13.8531 23.5682 13.9479 22.2866 14.4884C21.005 15.029 19.9343 15.9851 19.2407 17.2083C19.0023 17.6295 18.9378 18.1299 19.0615 18.5994C19.1853 19.0689 19.487 19.4692 19.9005 19.7122C20.314 19.9553 20.8054 20.0212 21.2665 19.8954C21.7277 19.7697 22.121 19.4626 22.3599 19.0417C22.5973 18.624 22.9382 18.2772 23.3486 18.0359C23.759 17.7945 24.2245 17.6672 24.6984 17.6667C25.4146 17.6667 26.1016 17.9564 26.6081 18.4721C27.1145 18.9879 27.3991 19.6873 27.3991 20.4167C27.3991 21.146 27.1145 21.8455 26.6081 22.3612C26.1016 22.8769 25.4146 23.1667 24.6984 23.1667H24.694C24.5783 23.1785 24.4641 23.2022 24.3532 23.2376C24.2319 23.2505 24.1121 23.2754 23.9956 23.3122C23.8965 23.367 23.8027 23.4314 23.7156 23.5044C23.6122 23.5617 23.5145 23.629 23.4239 23.7056C23.343 23.804 23.2723 23.9107 23.2132 24.024C23.1476 24.1067 23.0893 24.1952 23.0391 24.2883C23 24.4147 22.9741 24.5449 22.962 24.6768C22.9306 24.7823 22.9092 24.8905 22.8979 25V26.8333L22.9021 26.8541L22.9041 27.7545C22.9053 28.2399 23.0955 28.705 23.433 29.0479C23.7706 29.3907 24.2278 29.5833 24.7045 29.5833H24.7089C25.1864 29.5821 25.6439 29.3878 25.9807 29.0432C26.3176 28.6985 26.5061 28.2318 26.505 27.7455L26.5022 26.533C27.7978 26.1408 28.9348 25.3342 29.7449 24.2326C30.555 23.1309 30.9951 21.7929 31 20.4167ZM23.4333 32.865C23.1805 33.1203 23.0077 33.4462 22.9368 33.8015C22.8659 34.1567 22.9 34.5254 23.0348 34.861C23.1696 35.1965 23.3992 35.4838 23.6943 35.6866C23.9895 35.8893 24.3371 35.9984 24.6931 36C25.1706 35.996 25.6284 35.8057 25.9722 35.4683C26.3064 35.1205 26.4936 34.6533 26.4936 34.1667C26.4936 33.6802 26.3064 33.2129 25.9722 32.8651C25.6276 32.5381 25.1739 32.3562 24.7028 32.3562C24.2317 32.3561 23.778 32.538 23.4333 32.865Z" fill="#4D4D4D"/>
</svg>
