<svg width="26" height="26" viewBox="0 0 26 26" fill="none" xmlns="http://www.w3.org/2000/svg">
<path d="M21.06 14.0827C20.8217 14.0827 20.5725 14.0068 20.3342 13.9527C19.8515 13.8463 19.3772 13.7051 18.915 13.5302C18.4124 13.3473 17.86 13.3568 17.364 13.5568C16.868 13.7568 16.4635 14.1332 16.2283 14.6135L15.99 15.101C14.9348 14.514 13.9652 13.785 13.1083 12.9343C12.2577 12.0774 11.5286 11.1078 10.9417 10.0527L11.3967 9.74933C11.877 9.51415 12.2533 9.10965 12.4533 8.61366C12.6533 8.11767 12.6628 7.56523 12.48 7.06266C12.308 6.59945 12.1668 6.12536 12.0575 5.6435C12.0033 5.40516 11.96 5.156 11.9275 4.90683C11.7959 4.14375 11.3962 3.45272 10.8004 2.95817C10.2046 2.46363 9.45174 2.19807 8.67749 2.20933H5.42749C4.9606 2.20494 4.49826 2.30121 4.07192 2.49157C3.64559 2.68193 3.26527 2.96192 2.95687 3.31247C2.64847 3.66302 2.41922 4.0759 2.28472 4.52302C2.15023 4.97013 2.11366 5.44098 2.17749 5.90349C2.75462 10.442 4.82735 14.6589 8.06828 17.888C11.3092 21.1172 15.5336 23.1745 20.0742 23.7352H20.4858C21.2847 23.7363 22.056 23.4432 22.6525 22.9118C22.9952 22.6053 23.269 22.2295 23.4557 21.8093C23.6425 21.3892 23.738 20.9341 23.7358 20.4743V17.2243C23.7226 16.4718 23.4485 15.7473 22.9605 15.1743C22.4725 14.6013 21.8008 14.2155 21.06 14.0827ZM21.6017 20.5827C21.6015 20.7365 21.5685 20.8885 21.505 21.0286C21.4415 21.1687 21.3489 21.2936 21.2333 21.3952C21.1126 21.5003 20.9711 21.5787 20.8181 21.6254C20.665 21.672 20.5038 21.6859 20.345 21.666C16.2878 21.1458 12.5192 19.2897 9.63376 16.3905C6.74828 13.4913 4.9101 9.71394 4.40915 5.65433C4.39191 5.49564 4.40702 5.3351 4.45357 5.18242C4.50012 5.02973 4.57715 4.88807 4.67999 4.766C4.78151 4.65044 4.90647 4.55782 5.04656 4.49431C5.18666 4.4308 5.33867 4.39786 5.49249 4.39766H8.74249C8.99441 4.39206 9.24041 4.47445 9.43814 4.63065C9.63587 4.78686 9.77297 5.00711 9.82582 5.25349C9.86915 5.54961 9.92332 5.84211 9.98832 6.13099C10.1135 6.70207 10.28 7.26327 10.4867 7.81016L8.96999 8.51433C8.84031 8.57383 8.72366 8.65835 8.62674 8.76306C8.52982 8.86776 8.45454 8.99058 8.40521 9.12446C8.35589 9.25833 8.3335 9.40064 8.33932 9.54319C8.34515 9.68575 8.37907 9.82575 8.43915 9.95516C9.99829 13.2948 12.6828 15.9794 16.0225 17.5385C16.2862 17.6468 16.5821 17.6468 16.8458 17.5385C16.9809 17.4902 17.1051 17.4155 17.2111 17.3188C17.3171 17.2221 17.4028 17.1053 17.4633 16.9752L18.135 15.4585C18.695 15.6588 19.2666 15.8252 19.8467 15.9568C20.1355 16.0218 20.428 16.076 20.7242 16.1193C20.9705 16.1722 21.1908 16.3093 21.347 16.507C21.5032 16.7047 21.5856 16.9507 21.58 17.2027L21.6017 20.5827Z" fill="#969696"/>
</svg>
