<svg width="137" height="122" viewBox="0 0 137 122" fill="none" xmlns="http://www.w3.org/2000/svg">
<g opacity="0.8" clip-path="url(#clip0_582_10018)">
<path d="M7.61728 17.3281C6.02353 17.7266 4.59384 18.5 3.35166 19.6484C1.73447 21.1484 1.33603 22.1797 1.92197 23.4219C2.06259 23.75 7.31259 28.3672 13.5704 33.6875C28.6407 46.4844 46.7813 62.0234 52.6876 67.2031C56.8126 70.8125 57.6329 71.4219 58.7345 71.75C59.8829 72.0781 60.1173 72.0781 61.2423 71.75C62.6017 71.3516 62.5548 71.3984 69.1407 65.6328C74.672 60.7812 90.961 46.8359 106.43 33.6875C112.688 28.3672 117.938 23.75 118.078 23.4219C118.664 22.1797 118.266 21.1484 116.649 19.6484C115.359 18.4531 113.742 17.6094 112.078 17.2578C110.203 16.8594 9.23447 16.9297 7.61728 17.3281Z" fill="#003C96"/>
<path d="M1.10159 32.0234C-0.0468522 32.7031 2.28583e-05 31.2969 2.28583e-05 65.5859C2.28583e-05 86.0937 0.0937729 98 0.234398 98.7969C0.984398 102.781 4.21877 106.016 8.17971 106.766C9.91409 107.094 110.086 107.094 111.82 106.766C115.781 106.016 119.016 102.781 119.766 98.7969C119.906 98 120 86.0937 120 65.5859C120 31.1328 120.047 32.6562 118.852 32C118.195 31.6484 116.672 31.7187 116.109 32.0937C115.336 32.6328 84.0469 59.3047 76.6641 65.7266C73.0078 68.8906 69.0469 72.3125 67.875 73.3437C64.5469 76.2266 61.711 77.2812 58.6172 76.7891C55.6875 76.3203 54.8672 75.7812 48.5156 70.2031C41.2031 63.7812 6.35159 34.0156 4.12502 32.2812C3.39846 31.7187 1.85159 31.5781 1.10159 32.0234Z" fill="#003C96"/>
</g>
<circle cx="115" cy="22" r="20" fill="#FC3E2E" stroke="white" stroke-width="4"/>
<defs>
<clipPath id="clip0_582_10018">
<rect width="120" height="120" fill="white" transform="translate(0 2)"/>
</clipPath>
</defs>
</svg>
