<svg width="50" height="50" viewBox="0 0 50 50" fill="none" xmlns="http://www.w3.org/2000/svg">
<g id="&#208;&#159;&#209;&#128;&#208;&#190;&#209;&#132;&#208;&#184;&#208;&#187;&#209;&#140;">
<rect width="50" height="50" rx="9.09091" fill="#F0F0F0"/>
<path id="Vector" d="M25 14C26.4587 14 27.8576 14.5795 28.8891 15.6109C29.9205 16.6424 30.5 18.0413 30.5 19.5C30.5 20.9587 29.9205 22.3576 28.8891 23.3891C27.8576 24.4205 26.4587 25 25 25C23.5413 25 22.1424 24.4205 21.1109 23.3891C20.0795 22.3576 19.5 20.9587 19.5 19.5C19.5 18.0413 20.0795 16.6424 21.1109 15.6109C22.1424 14.5795 23.5413 14 25 14ZM25 16.75C24.2707 16.75 23.5712 17.0397 23.0555 17.5555C22.5397 18.0712 22.25 18.7707 22.25 19.5C22.25 20.2293 22.5397 20.9288 23.0555 21.4445C23.5712 21.9603 24.2707 22.25 25 22.25C25.7293 22.25 26.4288 21.9603 26.9445 21.4445C27.4603 20.9288 27.75 20.2293 27.75 19.5C27.75 18.7707 27.4603 18.0712 26.9445 17.5555C26.4288 17.0397 25.7293 16.75 25 16.75ZM25 26.375C28.6713 26.375 36 28.2037 36 31.875V35.5C36 35.7761 35.7761 36 35.5 36H14.5C14.2239 36 14 35.7761 14 35.5V31.875C14 28.2037 21.3287 26.375 25 26.375ZM25 28.9875C20.9162 28.9875 16.6125 30.995 16.6125 31.875V33.3875H33.3875V31.875C33.3875 30.995 29.0837 28.9875 25 28.9875Z" fill="#4D4D4D"/>
</g>
</svg>
