<svg width="28" height="28" viewBox="0 0 28 28" fill="none" xmlns="http://www.w3.org/2000/svg">
<g id="Icon/password/eyeOff">
<path id="Vector" d="M13.8017 10.5L17.5001 14.1867V14C17.5001 13.0717 17.1313 12.1815 16.475 11.5251C15.8186 10.8687 14.9283 10.5 14.0001 10.5H13.8017ZM8.78508 11.4333L10.5934 13.2417C10.5351 13.4867 10.5001 13.7317 10.5001 14C10.5001 14.9283 10.8688 15.8185 11.5252 16.4749C12.1816 17.1313 13.0718 17.5 14.0001 17.5C14.2567 17.5 14.5134 17.465 14.7584 17.4067L16.5667 19.215C15.7851 19.6 14.9217 19.8333 14.0001 19.8333C12.453 19.8333 10.9693 19.2188 9.87529 18.1248C8.78133 17.0308 8.16675 15.5471 8.16675 14C8.16675 13.0783 8.40008 12.215 8.78508 11.4333ZM2.33341 4.98167L4.99342 7.64167L5.51841 8.16667C3.59342 9.68333 2.07675 11.6667 1.16675 14C3.18508 19.1217 8.16675 22.75 14.0001 22.75C15.8084 22.75 17.5351 22.4 19.1101 21.77L19.6117 22.26L23.0184 25.6667L24.5001 24.185L3.81508 3.5M14.0001 8.16667C15.5472 8.16667 17.0309 8.78125 18.1249 9.87521C19.2188 10.9692 19.8334 12.4529 19.8334 14C19.8334 14.7467 19.6817 15.47 19.4134 16.1233L22.8317 19.5417C24.5817 18.0833 25.9818 16.17 26.8334 14C24.8151 8.87833 19.8334 5.25 14.0001 5.25C12.3667 5.25 10.8034 5.54167 9.33342 6.06667L11.8651 8.575C12.5301 8.31833 13.2417 8.16667 14.0001 8.16667Z" fill="#969696"/>
</g>
</svg>
