<svg width="26" height="18" viewBox="0 0 26 18" fill="none" xmlns="http://www.w3.org/2000/svg">
<g id="Group 2273">
<path id="Vector" d="M12.8016 5.5L16.5 9.18667V9C16.5 8.07174 16.1312 7.1815 15.4748 6.52513C14.8185 5.86875 13.9282 5.5 13 5.5H12.8016ZM7.78496 6.43333L9.59329 8.24167C9.53496 8.48667 9.49996 8.73167 9.49996 9C9.49996 9.92826 9.86871 10.8185 10.5251 11.4749C11.1815 12.1313 12.0717 12.5 13 12.5C13.2566 12.5 13.5133 12.465 13.7583 12.4067L15.5666 14.215C14.785 14.6 13.9216 14.8333 13 14.8333C11.4529 14.8333 9.96913 14.2188 8.87517 13.1248C7.78121 12.0308 7.16663 10.5471 7.16663 9C7.16663 8.07833 7.39996 7.215 7.78496 6.43333ZM4.24996 6.43333L4.51829 4.87521V3.16667C2.59329 4.68333 1.07663 6.66667 0.166626 9C2.18496 14.1217 7.16663 17.75 13 17.75C14.8083 17.75 16.535 17.4 18.11 16.77L18.25 16L17.0833 14.8333L18.8333 15.4167L5.41663 3.75M13 3.16667C14.5471 3.16667 16.0308 3.78125 17.1248 4.87521C18.2187 5.96917 18.8333 7.4529 18.8333 9C18.8333 9.74667 18.6816 10.47 18.4133 11.1233L21.8316 14.5417C23.5816 13.0833 24.9816 11.17 25.8333 9C23.815 3.87833 18.8333 0.25 13 0.25C11.3666 0.25 9.80329 0.541666 8.33329 1.06667L10.865 3.575C11.53 3.31833 12.2416 3.16667 13 3.16667Z" fill="#969696"/>
<path id="Vector_2" d="M12.8017 12.5L16.5001 8.81333V9C16.5001 9.92826 16.1313 10.8185 15.475 11.4749C14.8186 12.1313 13.9283 12.5 13.0001 12.5H12.8017ZM7.78508 11.5667L9.59342 9.75833C9.53508 9.51333 9.50008 9.26833 9.50008 9C9.50008 8.07174 9.86883 7.1815 10.5252 6.52513C11.1816 5.86875 12.0718 5.5 13.0001 5.5C13.2567 5.5 13.5134 5.535 13.7584 5.59333L15.5667 3.785C14.7851 3.4 13.9217 3.16667 13.0001 3.16667C11.453 3.16667 9.96925 3.78125 8.87529 4.87521C7.78133 5.96917 7.16675 7.4529 7.16675 9C7.16675 9.92167 7.40008 10.785 7.78508 11.5667ZM6.00008 14.425L5.41675 14.8333H4.51841C2.59342 13.3167 1.07675 11.3333 0.166748 9C2.18508 3.87833 7.16675 0.249998 13.0001 0.249998C14.8084 0.249998 16.5351 0.599998 18.1101 1.23L18.0809 1.77385L17.6667 2H19.4167L6.58342 15.4167M13.0001 14.8333C14.5472 14.8333 16.0309 14.2188 17.1249 13.1248C18.2188 12.0308 18.8334 10.5471 18.8334 9C18.8334 8.25333 18.6817 7.53 18.4134 6.87667L21.8317 3.45833C23.5817 4.91667 24.9818 6.83 25.8334 9C23.8151 14.1217 18.8334 17.75 13.0001 17.75C11.3667 17.75 9.80342 17.4583 8.33342 16.9333L10.8651 14.425C11.5301 14.6817 12.2417 14.8333 13.0001 14.8333Z" fill="#969696"/>
<circle id="Ellipse 77" cx="13.0001" cy="8.99935" r="5.83333" fill="#F0F0F0"/>
<circle id="Ellipse 78" cx="13.0001" cy="9" r="3.5" fill="#969696"/>
</g>
</svg>
